<svg xmlns="http://www.w3.org/2000/svg" viewBox="0 0 1100 840" font-family="-apple-system, BlinkMacSystemFont, Segoe UI, sans-serif">
  <defs>
    <filter id="shadow" x="-2%" y="-2%" width="104%" height="104%">
      <feDropShadow dx="0" dy="2" stdDeviation="3" flood-opacity="0.08"/>
    </filter>
    <marker id="arrow" markerWidth="8" markerHeight="8" refX="8" refY="4" orient="auto">
      <path d="M0,0 L8,4 L0,8" fill="#a100ff"/>
    </marker>
    <marker id="arrowGray" markerWidth="8" markerHeight="8" refX="8" refY="4" orient="auto">
      <path d="M0,0 L8,4 L0,8" fill="#c4cdd8"/>
    </marker>
  </defs>

  <!-- Background -->
  <rect width="1100" height="840" rx="16" fill="#f8f9fc"/>

  <!-- Title -->
  <text x="550" y="38" text-anchor="middle" font-size="14" font-weight="700" fill="#a100ff">&gt; accenture</text>
  <text x="550" y="62" text-anchor="middle" font-size="20" font-weight="600" fill="#1a2332">S/4HANA ISU Test Data Agent — Architecture</text>

  <!-- ═══════════ USER LAYER ═══════════ -->
  <rect x="380" y="90" width="340" height="64" rx="12" fill="#fff" stroke="#e2e6ed" filter="url(#shadow)"/>
  <rect x="380" y="90" width="340" height="64" rx="12" fill="#fff" stroke="#a100ff" stroke-width="1.5" stroke-dasharray="0"/>
  <text x="415" y="118" font-size="18">💬</text>
  <text x="442" y="118" font-size="13" font-weight="600" fill="#1a2332">Chat Interface</text>
  <text x="442" y="136" font-size="10.5" fill="#5a6b7f">Natural language scenario input &amp; data viewer</text>
  <rect x="616" y="102" width="90" height="20" rx="4" fill="#f3e8ff"/>
  <text x="661" y="116" text-anchor="middle" font-size="9" font-weight="600" fill="#a100ff">HTML / JS / CSS</text>

  <!-- Arrow: User → Server -->
  <line x1="550" y1="154" x2="550" y2="184" stroke="#a100ff" stroke-width="2" marker-end="url(#arrow)"/>

  <!-- ═══════════ SERVER LAYER ═══════════ -->
  <rect x="300" y="190" width="500" height="64" rx="12" fill="#fff" stroke="#e2e6ed" filter="url(#shadow)"/>
  <rect x="300" y="190" width="500" height="64" rx="12" fill="#fff" stroke="#0076d6" stroke-width="1.5"/>
  <text x="335" y="218" font-size="18">🌐</text>
  <text x="362" y="218" font-size="13" font-weight="600" fill="#1a2332">Express Server</text>
  <text x="462" y="218" font-size="10.5" fill="#5a6b7f">— POST /api/generate</text>
  <text x="362" y="238" font-size="10.5" fill="#5a6b7f">Creates fresh EntityStore per request, orchestrates agent loop</text>
  <rect x="686" y="202" width="100" height="20" rx="4" fill="#e8f2fc"/>
  <text x="736" y="216" text-anchor="middle" font-size="9" font-weight="600" fill="#0076d6">Express 5 / TS</text>

  <!-- Arrow: Server → Agent -->
  <line x1="550" y1="254" x2="550" y2="284" stroke="#a100ff" stroke-width="2" marker-end="url(#arrow)"/>

  <!-- ═══════════ AGENT LAYER ═══════════ -->
  <rect x="140" y="290" width="820" height="120" rx="12" fill="#fff8f0" stroke="#e85d04" stroke-width="1" stroke-dasharray="6,3"/>

  <!-- Agent Loop -->
  <rect x="160" y="305" width="240" height="90" rx="10" fill="#fff" stroke="#e2e6ed" filter="url(#shadow)"/>
  <text x="185" y="333" font-size="18">🤖</text>
  <text x="212" y="333" font-size="12" font-weight="600" fill="#1a2332">Agent Loop</text>
  <text x="185" y="352" font-size="10" fill="#5a6b7f">Multi-turn orchestration</text>
  <text x="185" y="366" font-size="10" fill="#5a6b7f">Max 20 turns until completion</text>
  <rect x="185" y="374" width="80" height="16" rx="3" fill="#fff3e0"/>
  <text x="225" y="385" text-anchor="middle" font-size="8" font-weight="600" fill="#e85d04">Agent Pattern</text>

  <!-- Arrow: Loop → LLM -->
  <line x1="400" y1="350" x2="430" y2="350" stroke="#e85d04" stroke-width="1.5" marker-end="url(#arrow)"/>

  <!-- LLM -->
  <rect x="435" y="305" width="240" height="90" rx="10" fill="#fff" stroke="#e2e6ed" filter="url(#shadow)"/>
  <text x="460" y="333" font-size="18">🧠</text>
  <text x="487" y="333" font-size="12" font-weight="600" fill="#1a2332">Azure OpenAI — GPT-4.1</text>
  <text x="460" y="352" font-size="10" fill="#5a6b7f">Function calling to select tools</text>
  <text x="460" y="366" font-size="10" fill="#5a6b7f">Generates realistic field values</text>
  <rect x="460" y="374" width="80" height="16" rx="3" fill="#fff3e0"/>
  <text x="500" y="385" text-anchor="middle" font-size="8" font-weight="600" fill="#e85d04">OpenAI SDK</text>

  <!-- Arrow: LLM → Prompt -->
  <line x1="675" y1="350" x2="705" y2="350" stroke="#e85d04" stroke-width="1.5" marker-end="url(#arrow)"/>

  <!-- System Prompt -->
  <rect x="710" y="305" width="230" height="90" rx="10" fill="#fff" stroke="#e2e6ed" filter="url(#shadow)"/>
  <text x="735" y="333" font-size="18">📋</text>
  <text x="762" y="333" font-size="12" font-weight="600" fill="#1a2332">System Prompt</text>
  <text x="735" y="352" font-size="10" fill="#5a6b7f">Dynamic context builder</text>
  <text x="735" y="366" font-size="10" fill="#5a6b7f">Dependency rules + entity state</text>
  <rect x="735" y="374" width="90" height="16" rx="3" fill="#fff3e0"/>
  <text x="780" y="385" text-anchor="middle" font-size="8" font-weight="600" fill="#e85d04">Dynamic Context</text>

  <!-- Arrow: Agent → Tools -->
  <line x1="550" y1="410" x2="550" y2="440" stroke="#a100ff" stroke-width="2" marker-end="url(#arrow)"/>

  <!-- ═══════════ TOOLS LAYER ═══════════ -->
  <rect x="60" y="446" width="980" height="160" rx="12" fill="#f0fdf4" stroke="#16a34a" stroke-width="1" stroke-dasharray="6,3"/>
  <text x="80" y="468" font-size="11" font-weight="700" fill="#16a34a">TOOL REGISTRY — 9 ISU Data Tools</text>

  <!-- Tool chips - Row 1 -->
  <rect x="80" y="478" width="170" height="50" rx="8" fill="#fff" stroke="#e2e6ed" filter="url(#shadow)"/>
  <text x="95" y="499" font-size="10" font-weight="600" fill="#16a34a">create_business_partner</text>
  <text x="95" y="517" font-size="9" fill="#5a6b7f">SAP Table: BUT000</text>

  <rect x="265" y="478" width="170" height="50" rx="8" fill="#fff" stroke="#e2e6ed" filter="url(#shadow)"/>
  <text x="280" y="499" font-size="10" font-weight="600" fill="#16a34a">create_contract_account</text>
  <text x="280" y="517" font-size="9" fill="#5a6b7f">SAP Table: FKKVKP</text>

  <rect x="450" y="478" width="170" height="50" rx="8" fill="#fff" stroke="#e2e6ed" filter="url(#shadow)"/>
  <text x="465" y="499" font-size="10" font-weight="600" fill="#16a34a">create_installation</text>
  <text x="465" y="517" font-size="9" fill="#5a6b7f">SAP Table: EANL</text>

  <rect x="635" y="478" width="170" height="50" rx="8" fill="#fff" stroke="#e2e6ed" filter="url(#shadow)"/>
  <text x="650" y="499" font-size="10" font-weight="600" fill="#16a34a">create_device</text>
  <text x="650" y="517" font-size="9" fill="#5a6b7f">SAP Table: EGER</text>

  <rect x="820" y="478" width="200" height="50" rx="8" fill="#fff" stroke="#e2e6ed" filter="url(#shadow)"/>
  <text x="835" y="499" font-size="10" font-weight="600" fill="#16a34a">create_meter_reading</text>
  <text x="835" y="517" font-size="9" fill="#5a6b7f">SAP Table: EABL</text>

  <!-- Tool chips - Row 2 -->
  <rect x="80" y="538" width="170" height="50" rx="8" fill="#fff" stroke="#e2e6ed" filter="url(#shadow)"/>
  <text x="95" y="559" font-size="10" font-weight="600" fill="#16a34a">move_in</text>
  <text x="95" y="577" font-size="9" fill="#5a6b7f">SAP Tables: EVER, ETTIFN</text>

  <rect x="265" y="538" width="170" height="50" rx="8" fill="#fff" stroke="#e2e6ed" filter="url(#shadow)"/>
  <text x="280" y="559" font-size="10" font-weight="600" fill="#16a34a">move_out</text>
  <text x="280" y="577" font-size="9" fill="#5a6b7f">SAP Table: ETTIFN</text>

  <rect x="450" y="538" width="185" height="50" rx="8" fill="#fff" stroke="#e2e6ed" filter="url(#shadow)"/>
  <text x="465" y="559" font-size="10" font-weight="600" fill="#16a34a">create_billing_document</text>
  <text x="465" y="577" font-size="9" fill="#5a6b7f">SAP Table: ERDK</text>

  <rect x="650" y="538" width="170" height="50" rx="8" fill="#fff" stroke="#e2e6ed" filter="url(#shadow)"/>
  <text x="665" y="559" font-size="10" font-weight="600" fill="#16a34a">validate_scenario</text>
  <text x="665" y="577" font-size="9" fill="#5a6b7f">Referential Integrity Check</text>

  <!-- Arrow: Tools → Output -->
  <line x1="550" y1="606" x2="550" y2="636" stroke="#a100ff" stroke-width="2" marker-end="url(#arrow)"/>

  <!-- ═══════════ DEPENDENCY CHAIN ═══════════ -->
  <rect x="60" y="642" width="980" height="90" rx="12" fill="#fff" stroke="#e2e6ed" filter="url(#shadow)"/>
  <text x="80" y="665" font-size="11" font-weight="700" fill="#a100ff">ENTITY DEPENDENCY CHAIN</text>

  <rect x="80" y="678" width="95" height="40" rx="6" fill="#f3e8ff"/>
  <text x="127" y="694" text-anchor="middle" font-size="9.5" font-weight="700" fill="#a100ff">BUT000</text>
  <text x="127" y="708" text-anchor="middle" font-size="8" fill="#5a6b7f">Business Partner</text>

  <text x="184" y="700" font-size="13" fill="#a100ff">→</text>

  <rect x="196" y="678" width="95" height="40" rx="6" fill="#e8f2fc"/>
  <text x="243" y="694" text-anchor="middle" font-size="9.5" font-weight="700" fill="#0076d6">FKKVKP</text>
  <text x="243" y="708" text-anchor="middle" font-size="8" fill="#5a6b7f">Contract Account</text>

  <text x="300" y="700" font-size="13" fill="#a100ff">→</text>

  <rect x="312" y="678" width="85" height="40" rx="6" fill="#fff3e0"/>
  <text x="354" y="694" text-anchor="middle" font-size="9.5" font-weight="700" fill="#e85d04">EANL</text>
  <text x="354" y="708" text-anchor="middle" font-size="8" fill="#5a6b7f">Installation</text>

  <text x="406" y="700" font-size="13" fill="#a100ff">→</text>

  <rect x="418" y="678" width="75" height="40" rx="6" fill="#f0fdf4"/>
  <text x="455" y="694" text-anchor="middle" font-size="9.5" font-weight="700" fill="#16a34a">EGER</text>
  <text x="455" y="708" text-anchor="middle" font-size="8" fill="#5a6b7f">Device</text>

  <text x="502" y="700" font-size="13" fill="#a100ff">→</text>

  <rect x="514" y="678" width="90" height="40" rx="6" fill="#f3e8ff"/>
  <text x="559" y="694" text-anchor="middle" font-size="9.5" font-weight="700" fill="#a100ff">EABL</text>
  <text x="559" y="708" text-anchor="middle" font-size="8" fill="#5a6b7f">Meter Reading</text>

  <text x="613" y="700" font-size="13" fill="#a100ff">→</text>

  <rect x="625" y="678" width="95" height="40" rx="6" fill="#e8f2fc"/>
  <text x="672" y="694" text-anchor="middle" font-size="9.5" font-weight="700" fill="#0076d6">EVER</text>
  <text x="672" y="708" text-anchor="middle" font-size="8" fill="#5a6b7f">Supply Contract</text>

  <text x="729" y="700" font-size="13" fill="#a100ff">→</text>

  <rect x="741" y="678" width="90" height="40" rx="6" fill="#fff3e0"/>
  <text x="786" y="694" text-anchor="middle" font-size="9.5" font-weight="700" fill="#e85d04">ETTIFN</text>
  <text x="786" y="708" text-anchor="middle" font-size="8" fill="#5a6b7f">Move Doc</text>

  <text x="840" y="700" font-size="13" fill="#a100ff">→</text>

  <rect x="852" y="678" width="75" height="40" rx="6" fill="#f0fdf4"/>
  <text x="889" y="694" text-anchor="middle" font-size="9.5" font-weight="700" fill="#16a34a">ERDK</text>
  <text x="889" y="708" text-anchor="middle" font-size="8" fill="#5a6b7f">Billing</text>

  <!-- ═══════════ INFRA LAYER ═══════════ -->
  <rect x="140" y="760" width="240" height="56" rx="10" fill="#fff" stroke="#e2e6ed" filter="url(#shadow)"/>
  <text x="165" y="788" font-size="15">☁️</text>
  <text x="190" y="788" font-size="11" font-weight="600" fill="#1a2332">Azure App Service</text>
  <text x="190" y="804" font-size="9" fill="#5a6b7f">Node.js 20 LTS</text>

  <rect x="430" y="760" width="240" height="56" rx="10" fill="#fff" stroke="#e2e6ed" filter="url(#shadow)"/>
  <text x="455" y="788" font-size="15">🧠</text>
  <text x="480" y="788" font-size="11" font-weight="600" fill="#1a2332">Azure OpenAI Service</text>
  <text x="480" y="804" font-size="9" fill="#5a6b7f">GPT-4.1 Deployment</text>

  <rect x="720" y="760" width="240" height="56" rx="10" fill="#fff" stroke="#e2e6ed" filter="url(#shadow)"/>
  <text x="745" y="788" font-size="15">📁</text>
  <text x="770" y="788" font-size="11" font-weight="600" fill="#1a2332">GitHub Repository</text>
  <text x="770" y="804" font-size="9" fill="#5a6b7f">CI/CD Deployment</text>

</svg>
